<mxfile host="app.diagrams.net" modified="2024-10-28T00:42:49.739Z" agent="Mozilla/5.0 (Windows NT 10.0; Win64; x64; rv:131.0) Gecko/20100101 Firefox/131.0" etag="Fw0Tn9xYMTUZhZONyL2J" version="23.0.2" type="device">
  <diagram name="Страница — 1" id="CngP1ntJ3QXgflZ2TY6n">
    <mxGraphModel dx="874" dy="508" grid="1" gridSize="10" guides="1" tooltips="1" connect="1" arrows="1" fold="1" page="1" pageScale="1" pageWidth="827" pageHeight="1169" math="0" shadow="0">
      <root>
        <mxCell id="0" />
        <mxCell id="1" parent="0" />
        <mxCell id="Agn42BdyjZS40tpoRsFj-1" value="&lt;font style=&quot;font-size: 30px;&quot;&gt;Class&lt;br&gt;Animals&lt;/font&gt;" style="rounded=0;whiteSpace=wrap;html=1;" vertex="1" parent="1">
          <mxGeometry x="330" y="10" width="210" height="110" as="geometry" />
        </mxCell>
        <mxCell id="Agn42BdyjZS40tpoRsFj-4" style="edgeStyle=orthogonalEdgeStyle;rounded=0;orthogonalLoop=1;jettySize=auto;html=1;exitX=0.75;exitY=0;exitDx=0;exitDy=0;entryX=0.25;entryY=1;entryDx=0;entryDy=0;" edge="1" parent="1" source="Agn42BdyjZS40tpoRsFj-2" target="Agn42BdyjZS40tpoRsFj-1">
          <mxGeometry relative="1" as="geometry" />
        </mxCell>
        <mxCell id="Agn42BdyjZS40tpoRsFj-2" value="&lt;font style=&quot;font-size: 25px;&quot;&gt;Class&lt;br&gt;Pets&lt;/font&gt;" style="rounded=0;whiteSpace=wrap;html=1;" vertex="1" parent="1">
          <mxGeometry x="80" y="170" width="180" height="100" as="geometry" />
        </mxCell>
        <mxCell id="Agn42BdyjZS40tpoRsFj-18" style="edgeStyle=orthogonalEdgeStyle;rounded=0;orthogonalLoop=1;jettySize=auto;html=1;exitX=0.25;exitY=0;exitDx=0;exitDy=0;entryX=0.75;entryY=1;entryDx=0;entryDy=0;" edge="1" parent="1" source="Agn42BdyjZS40tpoRsFj-6" target="Agn42BdyjZS40tpoRsFj-1">
          <mxGeometry relative="1" as="geometry" />
        </mxCell>
        <mxCell id="Agn42BdyjZS40tpoRsFj-6" value="&lt;font style=&quot;font-size: 25px;&quot;&gt;Class&lt;br&gt;Pack animals&lt;/font&gt;" style="rounded=0;whiteSpace=wrap;html=1;" vertex="1" parent="1">
          <mxGeometry x="610" y="160" width="190" height="100" as="geometry" />
        </mxCell>
        <mxCell id="Agn42BdyjZS40tpoRsFj-11" value="Class&lt;br&gt;Dog" style="rounded=0;whiteSpace=wrap;html=1;" vertex="1" parent="1">
          <mxGeometry x="10" y="320" width="120" height="60" as="geometry" />
        </mxCell>
        <mxCell id="Agn42BdyjZS40tpoRsFj-16" style="edgeStyle=orthogonalEdgeStyle;rounded=0;orthogonalLoop=1;jettySize=auto;html=1;exitX=0.5;exitY=0;exitDx=0;exitDy=0;" edge="1" parent="1" source="Agn42BdyjZS40tpoRsFj-12" target="Agn42BdyjZS40tpoRsFj-2">
          <mxGeometry relative="1" as="geometry" />
        </mxCell>
        <mxCell id="Agn42BdyjZS40tpoRsFj-12" value="Class&lt;br&gt;Cat" style="rounded=0;whiteSpace=wrap;html=1;" vertex="1" parent="1">
          <mxGeometry x="110" y="410" width="120" height="60" as="geometry" />
        </mxCell>
        <mxCell id="Agn42BdyjZS40tpoRsFj-13" value="Class&lt;br&gt;Hamster" style="rounded=0;whiteSpace=wrap;html=1;" vertex="1" parent="1">
          <mxGeometry x="210" y="320" width="120" height="60" as="geometry" />
        </mxCell>
        <mxCell id="Agn42BdyjZS40tpoRsFj-15" style="edgeStyle=orthogonalEdgeStyle;rounded=0;orthogonalLoop=1;jettySize=auto;html=1;exitX=0.5;exitY=0;exitDx=0;exitDy=0;entryX=0.3;entryY=1.01;entryDx=0;entryDy=0;entryPerimeter=0;" edge="1" parent="1" source="Agn42BdyjZS40tpoRsFj-11" target="Agn42BdyjZS40tpoRsFj-2">
          <mxGeometry relative="1" as="geometry" />
        </mxCell>
        <mxCell id="Agn42BdyjZS40tpoRsFj-17" style="edgeStyle=orthogonalEdgeStyle;rounded=0;orthogonalLoop=1;jettySize=auto;html=1;exitX=0.25;exitY=0;exitDx=0;exitDy=0;entryX=0.633;entryY=1;entryDx=0;entryDy=0;entryPerimeter=0;" edge="1" parent="1" source="Agn42BdyjZS40tpoRsFj-13" target="Agn42BdyjZS40tpoRsFj-2">
          <mxGeometry relative="1" as="geometry" />
        </mxCell>
        <mxCell id="Agn42BdyjZS40tpoRsFj-22" style="edgeStyle=orthogonalEdgeStyle;rounded=0;orthogonalLoop=1;jettySize=auto;html=1;exitX=0.5;exitY=0;exitDx=0;exitDy=0;entryX=0.25;entryY=1;entryDx=0;entryDy=0;" edge="1" parent="1" source="Agn42BdyjZS40tpoRsFj-19" target="Agn42BdyjZS40tpoRsFj-6">
          <mxGeometry relative="1" as="geometry" />
        </mxCell>
        <mxCell id="Agn42BdyjZS40tpoRsFj-19" value="Class&lt;br&gt;Horse" style="rounded=0;whiteSpace=wrap;html=1;" vertex="1" parent="1">
          <mxGeometry x="550" y="310" width="120" height="60" as="geometry" />
        </mxCell>
        <mxCell id="Agn42BdyjZS40tpoRsFj-20" value="Class&lt;br&gt;Donkey" style="rounded=0;whiteSpace=wrap;html=1;" vertex="1" parent="1">
          <mxGeometry x="690" y="310" width="120" height="60" as="geometry" />
        </mxCell>
        <mxCell id="Agn42BdyjZS40tpoRsFj-21" value="Class&lt;br&gt;Camel" style="rounded=0;whiteSpace=wrap;html=1;" vertex="1" parent="1">
          <mxGeometry x="620" y="400" width="120" height="60" as="geometry" />
        </mxCell>
        <mxCell id="Agn42BdyjZS40tpoRsFj-23" style="edgeStyle=orthogonalEdgeStyle;rounded=0;orthogonalLoop=1;jettySize=auto;html=1;entryX=0.589;entryY=1.01;entryDx=0;entryDy=0;entryPerimeter=0;" edge="1" parent="1" source="Agn42BdyjZS40tpoRsFj-20" target="Agn42BdyjZS40tpoRsFj-6">
          <mxGeometry relative="1" as="geometry" />
        </mxCell>
        <mxCell id="Agn42BdyjZS40tpoRsFj-26" style="edgeStyle=orthogonalEdgeStyle;rounded=0;orthogonalLoop=1;jettySize=auto;html=1;exitX=0.5;exitY=0;exitDx=0;exitDy=0;entryX=0.374;entryY=1.02;entryDx=0;entryDy=0;entryPerimeter=0;" edge="1" parent="1" source="Agn42BdyjZS40tpoRsFj-21" target="Agn42BdyjZS40tpoRsFj-6">
          <mxGeometry relative="1" as="geometry" />
        </mxCell>
      </root>
    </mxGraphModel>
  </diagram>
</mxfile>
